<svg width="13" height="16" viewBox="0 0 13 16" fill="none" xmlns="http://www.w3.org/2000/svg">
<path d="M12.1877 4.29121L8.61504 0.718555C8.51543 0.618945 8.38096 0.5625 8.23984 0.5625H1.1875C0.893652 0.5625 0.65625 0.799902 0.65625 1.09375V14.9062C0.65625 15.2001 0.893652 15.4375 1.1875 15.4375H11.8125C12.1063 15.4375 12.3438 15.2001 12.3438 14.9062V4.66807C12.3438 4.52695 12.2873 4.39082 12.1877 4.29121ZM11.1186 4.91211H7.99414V1.7877L11.1186 4.91211ZM11.1484 14.2422H1.85156V1.75781H6.86523V5.34375C6.86523 5.52868 6.9387 5.70603 7.06946 5.83679C7.20022 5.96755 7.37757 6.04102 7.5625 6.04102H11.1484V14.2422ZM6.36719 9.75977H3.3125C3.23945 9.75977 3.17969 9.81953 3.17969 9.89258V10.6895C3.17969 10.7625 3.23945 10.8223 3.3125 10.8223H6.36719C6.44023 10.8223 6.5 10.7625 6.5 10.6895V9.89258C6.5 9.81953 6.44023 9.75977 6.36719 9.75977ZM3.17969 7.63477V8.43164C3.17969 8.50469 3.23945 8.56445 3.3125 8.56445H9.6875C9.76055 8.56445 9.82031 8.50469 9.82031 8.43164V7.63477C9.82031 7.56172 9.76055 7.50195 9.6875 7.50195H3.3125C3.23945 7.50195 3.17969 7.56172 3.17969 7.63477Z" fill="#1B88D1"/>
</svg>
