<svg width="39" height="31" viewBox="0 0 39 31" fill="none" xmlns="http://www.w3.org/2000/svg">
<path d="M34.5762 6.47687H27.6949L24.4474 0.851868H14.7049L11.4574 6.47687H4.57617C2.51367 6.47687 0.826172 8.16437 0.826172 10.2269V27.1019C0.826172 29.1644 2.51367 30.8519 4.57617 30.8519H34.5762C36.6387 30.8519 38.3262 29.1644 38.3262 27.1019V10.2269C38.3262 8.16437 36.6387 6.47687 34.5762 6.47687ZM36.4512 27.1019C36.4512 28.1359 35.6102 28.9769 34.5762 28.9769H4.57617C3.54211 28.9769 2.70117 28.1359 2.70117 27.1019V10.2269C2.70117 9.19281 3.54211 8.35187 4.57617 8.35187H11.4574H12.5402L13.0812 7.41437L15.7877 2.72687H23.3655L26.0721 7.41437L26.613 8.35187H27.6959H34.5771C35.6112 8.35187 36.4521 9.19281 36.4521 10.2269V27.1019H36.4512Z" fill="white"/>
<path d="M19.5762 12.1019C16.4693 12.1019 13.9512 14.62 13.9512 17.7269C13.9512 20.8337 16.4693 23.3519 19.5762 23.3519C22.683 23.3519 25.2012 20.8337 25.2012 17.7269C25.2012 14.62 22.683 12.1019 19.5762 12.1019ZM19.5762 21.4769C17.508 21.4769 15.8262 19.795 15.8262 17.7269C15.8262 15.6587 17.508 13.9769 19.5762 13.9769C21.6443 13.9769 23.3262 15.6587 23.3262 17.7269C23.3262 19.795 21.6443 21.4769 19.5762 21.4769Z" fill="white"/>
</svg>
