<svg width="10" height="16" viewBox="0 0 10 16" fill="none" xmlns="http://www.w3.org/2000/svg">
<path d="M7.08317 0.0833282C5.70442 0.0833282 4.58317 1.20458 4.58317 2.58333V11.3333H5.4165V2.58333C5.4165 1.66416 6.164 0.916662 7.08317 0.916662C8.00234 0.916662 8.74984 1.66416 8.74984 2.58333V4.66666H8.74942V7.54958V11.3333H8.74984C8.74984 13.4012 7.06775 15.0833 4.99984 15.0833C2.93234 15.0833 1.25025 13.4012 1.25025 11.3333L1.24984 2.16666H0.416504L0.416921 11.3333C0.416921 13.8604 2.47275 15.9167 4.99984 15.9167C7.52692 15.9167 9.58317 13.8604 9.58317 11.3333L9.58275 7.54958L9.58317 2.58333C9.58317 1.20458 8.46192 0.0833282 7.08317 0.0833282Z" fill="#888888"/>
</svg>
