<svg width="30" height="29" viewBox="0 0 30 29" fill="none" xmlns="http://www.w3.org/2000/svg">
<path d="M29.9218 10.914C29.7254 10.3054 29.1866 9.87311 28.5492 9.81555L19.8903 9.0278L16.4664 0.998277C16.2139 0.409817 15.639 0.0289001 15.0002 0.0289001C14.3613 0.0289001 13.7864 0.409817 13.5339 0.999653L10.11 9.0278L1.44977 9.81555C0.813463 9.87449 0.276035 10.3054 0.0785047 10.914C-0.119025 11.5227 0.0633981 12.1903 0.544749 12.6111L7.08979 18.3622L5.15981 26.8802C5.01859 27.5065 5.26121 28.1539 5.77987 28.5295C6.05865 28.7314 6.38482 28.8341 6.71373 28.8341C6.99732 28.8341 7.27863 28.7575 7.53109 28.6061L15.0002 24.1335L22.4665 28.6061C23.0128 28.9355 23.7015 28.9054 24.2191 28.5295C24.7379 28.1528 24.9803 27.5051 24.8391 26.8802L22.9091 18.3622L29.4542 12.6122C29.9355 12.1903 30.1193 11.5238 29.9218 10.914Z" fill="url(#paint0_linear_699_21217)"/>
<defs>
<linearGradient id="paint0_linear_699_21217" x1="38.3454" y1="31.5837" x2="-1.11982" y2="29.0856" gradientUnits="userSpaceOnUse">
<stop stop-color="#EE5D5D"/>
<stop offset="1" stop-color="#FE6356"/>
</linearGradient>
</defs>
</svg>
