<svg width="30" height="28" viewBox="0 0 30 28" fill="none" xmlns="http://www.w3.org/2000/svg">
<path d="M27.3844 10.1C26.8373 10.0206 26.3153 9.81871 25.8571 9.50951C25.3988 9.20031 25.0163 8.79172 24.7378 8.31417C24.4594 7.83662 24.2923 7.30241 24.249 6.75132C24.2056 6.20024 24.2872 5.64647 24.4875 5.13127C24.6149 4.79445 24.6336 4.42622 24.5412 4.0782C24.4487 3.73018 24.2496 3.41983 23.9719 3.19064C22.7457 2.16095 21.3499 1.35206 19.8469 0.80002C19.5046 0.672879 19.131 0.656993 18.7792 0.754627C18.4273 0.85226 18.1153 1.05843 17.8875 1.34377C17.5447 1.78219 17.1065 2.13679 16.6062 2.38066C16.1059 2.62452 15.5566 2.75126 15 2.75126C14.4434 2.75126 13.8942 2.62452 13.3939 2.38066C12.8936 2.13679 12.4554 1.78219 12.1125 1.34377C11.8847 1.05843 11.5727 0.85226 11.2209 0.754627C10.8691 0.656993 10.4954 0.672879 10.1531 0.80002C8.76533 1.30968 7.46776 2.03759 6.3094 2.95627C6.01741 3.18742 5.80709 3.50599 5.70924 3.86532C5.6114 4.22465 5.63116 4.60586 5.76565 4.95314C5.98198 5.48198 6.07136 6.05415 6.02662 6.62377C5.98188 7.19339 5.80426 7.74459 5.50802 8.23316C5.21178 8.72174 4.80515 9.13408 4.32076 9.43712C3.83637 9.74016 3.28771 9.92545 2.71877 9.97814C2.3494 10.0176 2.00247 10.1747 1.72906 10.4262C1.45565 10.6776 1.2702 11.0102 1.20002 11.375C1.02546 12.2391 0.93752 13.1185 0.93752 14C0.936237 14.738 0.995814 15.4749 1.11565 16.2031C1.17528 16.5796 1.35728 16.926 1.6335 17.1886C1.90972 17.4513 2.26478 17.6156 2.64377 17.6563C3.2252 17.7108 3.78511 17.9039 4.27662 18.2192C4.76813 18.5346 5.17695 18.9631 5.46886 19.4689C5.76077 19.9747 5.92728 20.5431 5.95445 21.1264C5.98162 21.7098 5.86866 22.2912 5.62502 22.8219C5.46558 23.1671 5.42603 23.5557 5.51265 23.926C5.59927 24.2963 5.8071 24.627 6.10315 24.8656C7.322 25.8766 8.70431 26.6724 10.1906 27.2188C10.3807 27.2846 10.5801 27.3194 10.7813 27.3219C11.0571 27.3213 11.3287 27.2546 11.5734 27.1273C11.818 27.0001 12.0286 26.8161 12.1875 26.5906C12.5217 26.1038 12.9696 25.7059 13.4924 25.4314C14.0152 25.157 14.5971 25.0142 15.1875 25.0156C15.7596 25.0164 16.3237 25.1507 16.8347 25.4078C17.3458 25.665 17.7898 26.0379 18.1313 26.4969C18.3584 26.8023 18.6802 27.0239 19.0465 27.1273C19.4127 27.2308 19.8029 27.2102 20.1563 27.0688C21.5154 26.5218 22.7806 25.7658 23.9063 24.8281C24.189 24.5944 24.3904 24.2769 24.4813 23.9215C24.5723 23.566 24.5482 23.1909 24.4125 22.85C24.192 22.328 24.0959 21.7619 24.1317 21.1963C24.1675 20.6308 24.3342 20.0813 24.6188 19.5913C24.9034 19.1012 25.298 18.684 25.7714 18.3726C26.2449 18.0612 26.7842 17.8641 27.3469 17.7969C27.7118 17.7464 28.0511 17.5811 28.3157 17.3249C28.5803 17.0687 28.7565 16.7349 28.8188 16.3719C28.9693 15.5899 29.0509 14.7963 29.0625 14C29.0627 13.1602 28.9842 12.3221 28.8281 11.4969C28.7648 11.1419 28.5913 10.8158 28.3321 10.565C28.0729 10.3143 27.7413 10.1516 27.3844 10.1ZM19.6875 14C19.6875 14.9271 19.4126 15.8334 18.8975 16.6043C18.3825 17.3751 17.6504 17.9759 16.7938 18.3307C15.9373 18.6855 14.9948 18.7783 14.0855 18.5975C13.1762 18.4166 12.341 17.9701 11.6855 17.3146C11.0299 16.659 10.5835 15.8238 10.4026 14.9145C10.2217 14.0052 10.3145 13.0627 10.6693 12.2062C11.0241 11.3497 11.6249 10.6176 12.3958 10.1025C13.1666 9.58744 14.0729 9.31252 15 9.31252C16.2432 9.31252 17.4355 9.80638 18.3146 10.6855C19.1937 11.5645 19.6875 12.7568 19.6875 14Z" fill="white"/>
</svg>
