<svg width="30" height="29" viewBox="0 0 30 29" fill="none" xmlns="http://www.w3.org/2000/svg">
<path d="M29.9218 10.914C29.7254 10.3054 29.1866 9.87308 28.5492 9.81552L19.8903 9.02777L16.4664 0.998246C16.2139 0.409786 15.639 0.0288696 15.0002 0.0288696C14.3613 0.0288696 13.7864 0.409786 13.5339 0.999622L10.11 9.02777L1.44977 9.81552C0.813463 9.87445 0.276035 10.3054 0.0785047 10.914C-0.119025 11.5226 0.0633981 12.1902 0.544749 12.611L7.08979 18.3622L5.15981 26.8802C5.01859 27.5065 5.26121 28.1539 5.77987 28.5295C6.05865 28.7313 6.38482 28.8341 6.71373 28.8341C6.99732 28.8341 7.27863 28.7575 7.53109 28.6061L15.0002 24.1335L22.4665 28.6061C23.0128 28.9354 23.7015 28.9054 24.2191 28.5295C24.7379 28.1527 24.9803 27.5051 24.8391 26.8802L22.9091 18.3622L29.4542 12.6122C29.9355 12.1902 30.1193 11.5238 29.9218 10.914Z" fill="#D9D9D9"/>
</svg>
