<svg width="31" height="30" viewBox="0 0 31 30" fill="none" xmlns="http://www.w3.org/2000/svg">
<g clip-path="url(#clip0_1799_555)">
<path d="M30.621 14.2283L23.4667 6.87823C23.027 6.426 22.293 6.40538 21.8266 6.83212C21.361 7.25851 21.3394 7.9706 21.7794 8.42248L28.1824 15L21.7794 21.5783C21.3394 22.0302 21.361 22.7419 21.8266 23.1687C22.0509 23.3738 22.3375 23.4754 22.6229 23.4754C22.9311 23.4754 23.2389 23.3569 23.4667 23.1233L30.6211 15.7729C31.0429 15.339 31.0429 14.6618 30.621 14.2283Z" fill="white"/>
<path d="M9.15837 21.578L2.75584 15L9.15837 8.42215C9.59808 7.97028 9.57681 7.25812 9.11081 6.83179C8.64518 6.4054 7.91041 6.42603 7.47075 6.87791L0.316416 14.2279C-0.105472 14.6614 -0.105472 15.3391 0.316416 15.7726L7.47112 23.123C7.69928 23.3574 8.00673 23.4755 8.31495 23.4755C8.60034 23.4755 8.88694 23.3735 9.11081 23.1684C9.57724 22.742 9.59808 22.0299 9.15837 21.578Z" fill="white"/>
<path d="M17.3456 3.08774C16.7126 2.99476 16.1201 3.41622 16.0234 4.03011L12.6203 25.6302C12.5236 26.2445 12.9586 26.8186 13.5921 26.9124C13.6517 26.921 13.7104 26.9252 13.7688 26.9252C14.3323 26.9252 14.8265 26.5266 14.9143 25.97L18.3174 4.3699C18.4141 3.7556 17.9791 3.1815 17.3456 3.08774Z" fill="white"/>
</g>
<defs>
<clipPath id="clip0_1799_555">
<rect width="30.9375" height="30" fill="white"/>
</clipPath>
</defs>
</svg>
