<svg width="30" height="30" viewBox="0 0 30 30" fill="none" xmlns="http://www.w3.org/2000/svg">
<path d="M15 0C6.71574 0 0 6.71574 0 15C0 23.2843 6.71574 30.0001 15 30.0001C23.2843 30.0001 30 23.2843 30 15C30 6.71574 23.2843 0 15 0V0ZM23.8636 17.2053C23.825 19.0509 22.3003 20.5173 20.4546 20.4839H19.2247L11.1987 23.7585C11.0315 23.8267 10.8526 23.862 10.672 23.8623C10.3183 23.8631 9.9778 23.7276 9.72116 23.4841C9.34224 23.1319 9.20883 22.5881 9.38174 22.1004L9.94833 20.4838H9.54538C7.69967 20.5172 6.17491 19.0509 6.1363 17.2052V9.41498C6.17491 7.56934 7.69967 6.103 9.54538 6.13637H20.4546C22.3003 6.10294 23.825 7.56934 23.8636 9.41498V17.2053Z" fill="url(#paint0_linear_1_818)"/>
<path d="M20.4546 7.49998H9.54546C8.45273 7.46636 7.53835 8.32238 7.5 9.41491V17.2052C7.53835 18.2978 8.45273 19.1538 9.54546 19.1202H10.9091C11.2856 19.1203 11.5907 19.4258 11.5905 19.8024C11.5904 19.8788 11.5775 19.9548 11.5522 20.027L10.6686 22.5505L18.8331 19.1707C18.9149 19.1373 19.0025 19.1202 19.0908 19.1202H20.4546C21.5473 19.1538 22.4617 18.2977 22.5 17.2052V9.41498C22.4617 8.32238 21.5473 7.46636 20.4546 7.49998V7.49998ZM17.7273 14.3182H15.6818V16.3636C15.6818 16.7402 15.3765 17.0455 15 17.0455C14.6234 17.0455 14.3182 16.7402 14.3182 16.3636V14.3182H12.2728C11.8962 14.3182 11.5909 14.0129 11.5909 13.6363C11.5909 13.2598 11.8962 12.9545 12.2728 12.9545H14.3182V10.9091C14.3182 10.5325 14.6235 10.2272 15 10.2272C15.3766 10.2272 15.6819 10.5325 15.6819 10.9091V12.9545H17.7273C18.1039 12.9545 18.4092 13.2598 18.4092 13.6363C18.4091 14.0129 18.1038 14.3182 17.7273 14.3182V14.3182Z" fill="url(#paint1_linear_1_818)"/>
<defs>
<linearGradient id="paint0_linear_1_818" x1="-23.4951" y1="2.83085" x2="-7.08656" y2="45.4846" gradientUnits="userSpaceOnUse">
<stop stop-color="#9C99E8"/>
<stop offset="1" stop-color="#D5B8DA"/>
</linearGradient>
<linearGradient id="paint1_linear_1_818" x1="-4.2476" y1="8.9193" x2="4.00575" y2="30.3004" gradientUnits="userSpaceOnUse">
<stop stop-color="#9C99E8"/>
<stop offset="1" stop-color="#D5B8DA"/>
</linearGradient>
</defs>
</svg>
